<svg xmlns="http://www.w3.org/2000/svg" xmlns:xlink="http://www.w3.org/1999/xlink" viewBox="0 0 593.77 593.72"><defs><style>.cls-1{fill:none;}.cls-2{isolation:isolate;}.cls-3{fill:#f4f4f4;fill-rule:evenodd;}.cls-4{mix-blend-mode:multiply;opacity:0.2;}.cls-5{clip-path:url(#clip-path);}.cls-6{fill:#f4ce00;}</style><clipPath id="clip-path"><rect class="cls-1" width="593.77" height="593.72"/></clipPath></defs><g class="cls-2"><g id="Layer_2" data-name="Layer 2"><g id="Layer_1-2" data-name="Layer 1"><path class="cls-3" d="M7.94,364.63C45.4,524.18,205.1,623.16,364.65,585.7S623.17,388.54,585.71,229,388.56-29.52,229,7.93-29.51,205.09,7.94,364.63"/><g class="cls-4"><g class="cls-5"><path class="cls-6" d="M7.92,229C-29.54,388.58,69.45,548.32,229,585.79s319.34-61.51,356.81-221.08S524.32,45.4,364.72,7.93,45.39,69.44,7.92,229M558.84,358.36C524.87,503,380.06,592.75,235.39,558.78S1,380,34.93,235.35,213.71,1,358.38,34.93,592.8,213.71,558.84,358.36Z"/></g></g></g></g></g></svg>